<?xml version="1.0" encoding="UTF-8" standalone="no"?>
<!DOCTYPE svg PUBLIC "-//W3C//DTD SVG 1.1//EN" "http://www.w3.org/Graphics/SVG/1.1/DTD/svg11.dtd">
<svg xmlns="http://www.w3.org/2000/svg" version="1.1" viewBox="0.00 0.00 128.00 128.00">
<path fill="#ffffff" d="
  M 95.36 78.18
  C 95.30 80.43 95.54 83.35 93.88 85.07
  Q 89.85 89.30 85.64 93.40
  Q 83.20 95.78 79.24 95.27
  Q 77.32 95.03 77.53 96.95
  L 79.78 117.43
  A 2.27 2.27 0.0 0 1 77.20 119.92
  Q 68.18 118.61 60.18 113.91
  C 49.79 107.82 45.64 97.72 46.70 85.82
  A 1.21 1.21 0.0 0 0 46.20 84.73
  C 26.92 70.91 14.27 47.67 9.18 25.02
  Q 7.38 17.01 8.65 9.53
  Q 8.75 8.95 9.31 8.78
  C 14.77 7.19 22.33 8.32 28.03 9.74
  C 49.77 15.17 72.26 28.29 84.74 46.20
  A 1.20 1.18 70.2 0 0 85.80 46.71
  C 97.47 45.85 106.81 49.33 113.24 59.21
  Q 118.04 66.59 119.84 76.90
  C 120.12 78.53 118.92 79.94 117.27 79.77
  Q 106.08 78.61 96.19 77.46
  Q 95.38 77.37 95.36 78.18
  Z
  M 57.97 46.00
  A 11.99 11.99 0.0 0 0 45.98 34.01
  A 11.99 11.99 0.0 0 0 33.99 46.00
  A 11.99 11.99 0.0 0 0 45.98 57.99
  A 11.99 11.99 0.0 0 0 57.97 46.00
  Z"
/>
<path fill="#ffffff" d="
  M 100.76 84.06
  C 106.94 84.87 111.16 88.66 112.83 94.55
  Q 115.57 104.17 115.93 115.38
  Q 115.95 116.01 115.33 115.97
  Q 102.51 115.30 93.96 112.65
  Q 85.55 110.04 84.03 100.75
  A 0.99 0.98 10.9 0 1 85.51 99.75
  C 88.90 101.78 93.50 103.37 97.22 101.58
  C 103.58 98.50 103.45 90.85 99.79 85.67
  A 1.03 1.03 0.0 0 1 100.76 84.06
  Z"
/>
</svg>
