<?xml version="1.0" encoding="UTF-8" standalone="no"?>
<!DOCTYPE svg PUBLIC "-//W3C//DTD SVG 1.1//EN" "http://www.w3.org/Graphics/SVG/1.1/DTD/svg11.dtd">
<svg xmlns="http://www.w3.org/2000/svg" version="1.1" viewBox="0.00 0.00 512.00 512.00">
<path fill="#ffffff" d="
  M 381.80 310.00
  Q 381.70 319.30 380.67 329.08
  Q 379.93 336.26 374.69 341.53
  Q 358.84 357.49 341.72 374.63
  C 336.15 380.20 330.69 380.90 322.40 381.37
  Q 316.70 381.69 310.21 381.97
  Q 309.59 381.99 309.66 382.61
  Q 314.02 423.10 318.90 466.31
  Q 319.50 471.66 318.46 474.07
  C 316.57 478.42 312.30 480.62 307.66 479.81
  C 257.47 471.05 205.01 445.04 190.41 392.54
  C 185.87 376.19 185.18 358.69 186.72 341.49
  A 1.42 1.42 0.0 0 0 186.13 340.21
  Q 155.18 318.15 131.00 290.43
  Q 110.96 267.45 93.65 239.20
  Q 58.59 181.97 41.64 121.13
  C 36.51 102.73 32.76 82.75 32.26 63.35
  Q 31.92 50.31 34.48 38.59
  Q 35.27 34.96 38.98 34.25
  Q 54.42 31.30 70.39 32.35
  Q 95.75 34.01 122.11 41.34
  Q 183.44 58.40 239.71 93.36
  Q 271.39 113.05 296.78 136.48
  Q 320.29 158.17 340.43 186.18
  A 1.21 1.18 69.9 0 0 341.47 186.68
  C 361.79 185.35 382.13 186.06 401.34 193.44
  C 448.41 211.53 471.56 260.73 479.61 308.26
  C 480.43 313.08 477.13 317.92 472.48 318.96
  Q 470.27 319.46 467.24 319.12
  Q 425.43 314.41 382.11 309.73
  A 0.27 0.27 0.0 0 0 381.80 310.00
  Z
  M 231.93 183.99
  A 48.00 48.00 0.0 0 0 183.93 135.99
  A 48.00 48.00 0.0 0 0 135.93 183.99
  A 48.00 48.00 0.0 0 0 183.93 231.99
  A 48.00 48.00 0.0 0 0 231.93 183.99
  Z"
/>
<path fill="#ffffff" d="
  M 387.52 407.04
  C 400.81 401.39 410.16 388.05 409.31 373.43
  Q 408.65 362.17 404.30 351.01
  Q 402.83 347.24 399.71 343.99
  C 396.62 340.77 398.63 335.42 403.34 336.08
  Q 421.40 338.58 434.83 350.04
  C 441.59 355.80 445.83 362.93 448.94 371.10
  Q 454.76 386.41 458.08 405.83
  Q 462.74 433.03 463.95 463.43
  Q 463.97 464.00 463.41 463.97
  C 438.47 463.05 411.77 460.15 388.24 454.34
  C 375.87 451.29 361.16 446.59 352.30 437.28
  Q 339.22 423.56 336.26 404.65
  Q 335.79 401.66 336.65 400.27
  C 338.12 397.91 341.11 397.61 343.25 399.31
  Q 346.36 401.79 350.21 403.41
  C 361.81 408.28 375.22 412.27 387.52 407.04
  Z"
/>
</svg>
